<!-- Created with Inkscape (http://www.inkscape.org/) --><svg xmlns="http://www.w3.org/2000/svg" xmlns:svg="http://www.w3.org/2000/svg" width="48" height="48" viewBox="0 0 48 48" version="1.1" id="svg1">
  <defs id="defs1">
    <filter style="color-interpolation-filters:sRGB;" id="filter2" x="-0.035820896" y="-0.054999284" width="1.0716418" height="1.1099986">
      <feFlood result="flood" in="SourceGraphic" flood-opacity="1" flood-color="rgb(0,0,0)" id="feFlood1"/>
      <feGaussianBlur result="blur" in="SourceGraphic" stdDeviation="2.000000" id="feGaussianBlur1"/>
      <feOffset result="offset" in="blur" dx="0.000000" dy="0.000000" id="feOffset1"/>
      <feComposite result="comp1" operator="in" in="flood" in2="offset" id="feComposite1"/>
      <feComposite result="comp2" operator="over" in="SourceGraphic" in2="comp1" id="feComposite2"/>
    </filter>
  </defs>
  <g id="layer1">
    <g id="g12" style="filter:url(#filter2)">
      <path style="fill:#ffffff;stroke:none" d="M 17,84 H 32 C 40,84 44,80 44,72 44,64 40,60 32,60 H 15 v -6 l -10,8 10,8 v -6 h 17 c 6,0 8,3 8,8 0,5 -2,8 -8,8 H 17 Z" id="path1"/>
      <path style="font-variation-settings:normal;vector-effect:none;fill:#ffffff;fill-opacity:1;stroke:none;stroke-width:1px;stroke-linecap:butt;stroke-linejoin:miter;stroke-miterlimit:4;stroke-dasharray:none;stroke-dashoffset:0;stroke-opacity:1;-inkscape-stroke:none;stop-color:#000000" d="m 76,28 v 16 h 3 V 31 h 13 v -3 z" id="path32"/>
      <path style="font-variation-settings:normal;vector-effect:none;fill:#ffffff;fill-opacity:1;stroke:none;stroke-width:1px;stroke-linecap:butt;stroke-linejoin:miter;stroke-miterlimit:4;stroke-dasharray:none;stroke-dashoffset:0;stroke-opacity:1;-inkscape-stroke:none;stop-color:#000000" d="M 68,28 H 52 v 3 h 13 v 13 h 3 z" id="path33"/>
      <path style="font-variation-settings:normal;vector-effect:none;fill:#ffffff;fill-opacity:1;stroke:none;stroke-width:1px;stroke-linecap:butt;stroke-linejoin:miter;stroke-miterlimit:4;stroke-dasharray:none;stroke-dashoffset:0;stroke-opacity:1;-inkscape-stroke:none;stop-color:#000000" d="M 68,20 V 4 H 65 V 17 H 52 v 3 z" id="path34"/>
      <path style="font-variation-settings:normal;vector-effect:none;fill:#ffffff;fill-opacity:1;stroke:none;stroke-width:1px;stroke-linecap:butt;stroke-linejoin:miter;stroke-miterlimit:4;stroke-dasharray:none;stroke-dashoffset:0;stroke-opacity:1;-inkscape-stroke:none;stop-color:#000000" d="M 76,20 H 92 V 17 H 79 V 4 h -3 z" id="path35"/>
      <path style="font-variation-settings:normal;vector-effect:none;fill:#ffffff;fill-opacity:1;stroke:none;stroke-width:1px;stroke-linecap:butt;stroke-linejoin:miter;stroke-miterlimit:4;stroke-dasharray:none;stroke-dashoffset:0;stroke-opacity:1;-inkscape-stroke:none;stop-color:#000000" d="m 101,5 v 15 h 3 V 8 h 12 V 5 Z" id="path36"/>
      <path style="font-variation-settings:normal;vector-effect:none;fill:#ffffff;fill-opacity:1;stroke:none;stroke-width:1px;stroke-linecap:butt;stroke-linejoin:miter;stroke-miterlimit:4;stroke-dasharray:none;stroke-dashoffset:0;stroke-opacity:1;-inkscape-stroke:none;stop-color:#000000" d="m 139,5 h -15 v 3 h 12 v 12 h 3 z" id="path37"/>
      <path style="font-variation-settings:normal;vector-effect:none;fill:#ffffff;fill-opacity:1;stroke:none;stroke-width:1px;stroke-linecap:butt;stroke-linejoin:miter;stroke-miterlimit:4;stroke-dasharray:none;stroke-dashoffset:0;stroke-opacity:1;-inkscape-stroke:none;stop-color:#000000" d="M 139,43 V 28 h -3 v 12 h -12 v 3 z" id="path38"/>
      <path style="font-variation-settings:normal;vector-effect:none;fill:#ffffff;fill-opacity:1;stroke:none;stroke-width:1px;stroke-linecap:butt;stroke-linejoin:miter;stroke-miterlimit:4;stroke-dasharray:none;stroke-dashoffset:0;stroke-opacity:1;-inkscape-stroke:none;stop-color:#000000" d="m 101,43 h 15 V 40 H 104 V 28 h -3 z" id="path39"/>
      <rect style="fill:#ffffff;stroke:none;stroke-width:2;stroke-dasharray:none" id="rect39" width="36" height="7" x="6" y="37" ry="2"/>
      <path style="font-variation-settings:normal;vector-effect:none;fill:#ffffff;fill-opacity:1;stroke:none;stroke-width:1px;stroke-linecap:butt;stroke-linejoin:miter;stroke-miterlimit:4;stroke-dasharray:none;stroke-dashoffset:0;stroke-opacity:1;-inkscape-stroke:none;stop-color:#000000" d="M 24.939169,33.943435 38.57783,18.599942 A 0.96129318,0.96129318 65.81677 0 0 37.85935,17 H 31 A 1,1 45 0 1 30,16 V 5 A 1,1 45 0 0 29,4 H 19 a 1,1 135 0 0 -1,1 v 11 a 1,1 135 0 1 -1,1 H 10.242228 A 1.0069085,1.0069085 114.18323 0 0 9.4896552,18.675862 L 23.060831,33.943435 a 1.256566,1.256566 180 0 0 1.878338,0 z" id="path40"/>
      <path style="font-variation-settings:normal;vector-effect:none;fill:#ffffff;fill-opacity:1;stroke:none;stroke-width:1px;stroke-linecap:butt;stroke-linejoin:miter;stroke-miterlimit:4;stroke-dasharray:none;stroke-dashoffset:0;stroke-opacity:1;-inkscape-stroke:none;stop-color:#000000" d="M 20.242641,72 36.939339,55.303302 a 1.5000009,1.5000009 90.000007 0 0 1e-6,-2.121322 1.4999994,1.4999994 5.2481692e-6 0 0 -2.12132,0 L 17,71 a 1.4142136,1.4142136 90 0 0 0,2 l 17.846194,17.846194 a 1.4601547,1.4601547 179.99999 0 0 2.064971,0 l 0,0 a 1.5398456,1.5398456 89.999993 0 0 0,-2.17767 z" id="path46" transform="translate(43.757359)"/>
      <path style="font-variation-settings:normal;vector-effect:none;fill:#ffffff;fill-opacity:1;stroke:none;stroke-width:1px;stroke-linecap:butt;stroke-linejoin:miter;stroke-miterlimit:4;stroke-dasharray:none;stroke-dashoffset:0;stroke-opacity:1;-inkscape-stroke:none;stop-color:#000000" d="M 20.242641,72 36.939339,55.303302 a 1.5000009,1.5000009 90.000007 0 0 1e-6,-2.121322 1.4999994,1.4999994 5.2481692e-6 0 0 -2.12132,0 L 17,71 a 1.4142136,1.4142136 90 0 0 0,2 l 17.846194,17.846194 a 1.4601547,1.4601547 179.99999 0 0 2.064971,0 l 0,0 a 1.5398456,1.5398456 89.999993 0 0 0,-2.17767 z" id="path46-4" transform="matrix(-1,0,0,1,148.24264,0)"/>
    </g>
  </g>
<view id="page-download" viewBox="0 0 48 48"/><view id="page-exit-fullscreen" viewBox="48 0 48 48"/><view id="page-enter-fullscreen" viewBox="96 0 48 48"/><view id="page-return" viewBox="0 48 48 48"/><view id="page-prev" viewBox="48 48 48 48"/><view id="page-next" viewBox="96 48 48 48"/></svg>